<!DOCTYPE svg PUBLIC "-//W3C//DTD SVG 1.1//EN" "http://www.w3.org/Graphics/SVG/1.1/DTD/svg11.dtd">
<!-- Uploaded to: SVG Repo, www.svgrepo.com, Transformed by: SVG Repo Mixer Tools -->
<svg fill="#ffffff" height="800px" width="800px" version="1.1" id="Capa_1" xmlns="http://www.w3.org/2000/svg" xmlns:xlink="http://www.w3.org/1999/xlink" viewBox="0 0 470 470" xml:space="preserve">
<g id="SVGRepo_bgCarrier" stroke-width="0"/>
<g id="SVGRepo_tracerCarrier" stroke-linecap="round" stroke-linejoin="round"/>
<g id="SVGRepo_iconCarrier"> <g> <path d="M260,152.148l-46.543,0.001c-4.143,0-7.5,3.358-7.5,7.5c0,4.143,3.358,7.5,7.5,7.5L260,167.148c4.143,0,7.5-3.358,7.5-7.5 C267.5,155.506,264.142,152.148,260,152.148z"/> <path d="M414.074,83.574c0-29.889-6.039-58.122-17.006-79.498C395.784,1.574,393.208,0,390.396,0H79.604 c-2.813,0-5.389,1.574-6.673,4.076C61.965,25.452,55.926,53.686,55.926,83.574c0,28.32,5.421,55.152,15.319,76.075 c-9.898,20.923-15.319,47.754-15.319,76.074c0,29.889,6.039,58.121,17.006,79.498c1.284,2.502,3.86,4.076,6.673,4.076h103.577 c0.039,0,19.318,0,19.318,0V437.5c0,17.921,14.579,32.5,32.5,32.5s32.5-14.579,32.5-32.5V319.298h19.28 c0.039,0,103.616,0,103.616,0c2.813,0,5.389-1.574,6.673-4.076c10.967-21.377,17.006-49.609,17.006-79.498 c0-28.32-5.421-55.152-15.319-76.075C408.653,138.726,414.074,111.895,414.074,83.574z M279.299,122.148h-88.598V45h88.598V122.148 z M294.299,45h33.397c21.271,0,38.575,17.305,38.575,38.574s-17.305,38.574-38.575,38.574h-33.397V45z M279.299,274.298h-88.598 v-77.148h88.598V274.298z M294.299,197.149h50.799c11.675,0,21.174,9.498,21.174,21.174v34.801 c0,11.676-9.499,21.174-21.174,21.174h-50.799V197.149z M190.701,304.298v-15h88.598v15H190.701z M175.701,274.298h-33.397 c-21.271,0-38.575-17.305-38.575-38.574s17.305-38.574,38.575-38.574h33.397V274.298z M190.701,182.149v-45.001h88.598v45.001 H190.701z M175.701,122.148h-50.799c-11.675,0-21.174-9.498-21.174-21.174V66.174c0-11.676,9.499-21.174,21.174-21.174h50.799 V122.148z M190.701,30V15h88.598v15H190.701z M84.304,167.149l68.897-0.001c4.143,0,7.5-3.358,7.5-7.5c0-4.143-3.358-7.5-7.5-7.5 l-68.897,0.001C66.391,113.246,66.387,53.906,84.296,15h91.405v15h-50.799c-19.946,0-36.174,16.228-36.174,36.174v34.801 c0,19.946,16.228,36.174,36.174,36.174h50.799v45.001h-33.397c-29.541,0-53.575,24.033-53.575,53.574s24.034,53.574,53.575,53.574 h33.397v15H84.296C66.387,265.392,66.391,206.052,84.304,167.149z M252.5,437.5c0,9.649-7.851,17.5-17.5,17.5 s-17.5-7.851-17.5-17.5V319.298h35V437.5z M385.704,304.298h-91.405v-15h50.799c19.946,0,36.174-16.228,36.174-36.174v-34.801 c0-19.946-16.228-36.174-36.174-36.174h-50.799v-45.001h33.397c29.541,0,53.575-24.033,53.575-53.574S357.237,30,327.696,30 h-33.397V15h91.405c17.909,38.906,17.904,98.246-0.008,137.148h-68.897c-4.143,0-7.5,3.357-7.5,7.5s3.357,7.5,7.5,7.5h68.897 C403.608,206.052,403.613,265.392,385.704,304.298z"/> </g> </g>
</svg>