<?xml version="1.0" encoding="UTF-8" standalone="no"?> <svg xmlns="http://www.w3.org/2000/svg" width="15.498" height="15.498" viewBox="0 0 15.498 15.498">
  <path id="face-smile-wink-emoji" d="M7.749,8A7.749,7.749,0,1,0,15.5,15.749,7.748,7.748,0,0,0,7.749,8Zm0,14A6.249,6.249,0,1,1,14,15.749,6.256,6.256,0,0,1,7.749,22Zm3.681-4.574a.749.749,0,0,0-1.056.1,3.413,3.413,0,0,1-5.249,0,.75.75,0,1,0-1.153.959,4.919,4.919,0,0,0,7.555,0A.749.749,0,0,0,11.43,17.424Zm-6.18-2.175a1,1,0,1,0-1-1A1,1,0,0,0,5.249,15.249Zm5-1.875A1.879,1.879,0,0,0,8.377,14.69.375.375,0,0,0,9,15.027l.3-.266a1.623,1.623,0,0,1,1.906,0l.3.266a.374.374,0,0,0,.619-.337,1.866,1.866,0,0,0-1.865-1.315Z" transform="translate(0 -8)"/>
</svg>
